<svg id="visual" viewBox="0 0 900 600" width="900" height="600" xmlns="http://www.w3.org/2000/svg" xmlns:xlink="http://www.w3.org/1999/xlink" version="1.1"><rect x="0" y="0" width="900" height="600" fill="#6198ff"></rect><path d="M0 283L129 283L129 326L257 326L257 335L386 335L386 375L514 375L514 324L643 324L643 268L771 268L771 369L900 369L900 348L900 601L900 601L771 601L771 601L643 601L643 601L514 601L514 601L386 601L386 601L257 601L257 601L129 601L129 601L0 601Z" fill="#3c80ff"></path><path d="M0 463L129 463L129 355L257 355L257 379L386 379L386 388L514 388L514 372L643 372L643 402L771 402L771 430L900 430L900 388L900 601L900 601L771 601L771 601L643 601L643 601L514 601L514 601L386 601L386 601L257 601L257 601L129 601L129 601L0 601Z" fill="#2573ff"></path><path d="M0 455L129 455L129 512L257 512L257 444L386 444L386 504L514 504L514 464L643 464L643 510L771 510L771 535L900 535L900 448L900 601L900 601L771 601L771 601L643 601L643 601L514 601L514 601L386 601L386 601L257 601L257 601L129 601L129 601L0 601Z" fill="#0066ff"></path></svg>