<svg id="visual" viewBox="0 0 900 600" width="900" height="600" xmlns="http://www.w3.org/2000/svg" xmlns:xlink="http://www.w3.org/1999/xlink" version="1.1"><rect x="0" y="0" width="900" height="600" fill="#6198ff"></rect><path d="M0 263L129 263L129 376L257 376L257 348L386 348L386 344L514 344L514 324L643 324L643 376L771 376L771 323L900 323L900 336L900 601L900 601L771 601L771 601L643 601L643 601L514 601L514 601L386 601L386 601L257 601L257 601L129 601L129 601L0 601Z" fill="#3c80ff"></path><path d="M0 439L129 439L129 437L257 437L257 383L386 383L386 462L514 462L514 376L643 376L643 364L771 364L771 447L900 447L900 363L900 601L900 601L771 601L771 601L643 601L643 601L514 601L514 601L386 601L386 601L257 601L257 601L129 601L129 601L0 601Z" fill="#2573ff"></path><path d="M0 479L129 479L129 464L257 464L257 542L386 542L386 444L514 444L514 519L643 519L643 513L771 513L771 443L900 443L900 500L900 601L900 601L771 601L771 601L643 601L643 601L514 601L514 601L386 601L386 601L257 601L257 601L129 601L129 601L0 601Z" fill="#0066ff"></path></svg>